<svg width="109" height="108" viewBox="0 0 109 108" fill="none" xmlns="http://www.w3.org/2000/svg">
<path d="M1.00193 100.5V106.5C12.5939 100.418 31.794 96.3332 40.2741 95.1638C42.1934 94.8991 43.5635 94.7838 44.172 94.8285C43.455 93.2963 42.7971 84.8646 43.2076 82.574C43.2564 82.3014 43.3204 82.1157 43.4013 82.039C42.2993 82.0802 37.0019 82.0002 37.0019 82.0002C37.0019 82.0002 38.0088 90.0439 37.5019 90.0002C36.995 89.9565 0.695332 100.459 1.00193 100.5Z" fill="#FCDB5A"/>
<path d="M44.5019 95.0002C44.5772 94.9064 44.4597 94.8496 44.172 94.8285M44.5019 95.0002C44.393 95.1359 44.2818 95.0631 44.172 94.8285M44.5019 95.0002C43.6816 96.0224 42.7343 85.2154 43.2076 82.574M44.5019 95.0002C44.7363 94.7081 43.1008 94.774 40.2741 95.1638M43.5019 82.0002C44.5429 82.1141 37.0019 82.0002 37.0019 82.0002M43.5019 82.0002C43.4658 81.9962 43.4323 82.0096 43.4013 82.039M43.5019 82.0002C43.6704 82.0186 43.6141 82.0311 43.4013 82.039M43.5019 82.0002C43.3718 81.9859 43.2752 82.1966 43.2076 82.574M37.0019 82.0002C37.0019 82.0002 38.0088 90.0439 37.5019 90.0002C36.995 89.9565 0.695332 100.459 1.00193 100.5V106.5C12.5939 100.418 31.794 96.3332 40.2741 95.1638M37.0019 82.0002C37.0019 82.0002 42.2993 82.0802 43.4013 82.039M44.172 94.8285C43.5635 94.7838 42.1934 94.8991 40.2741 95.1638M44.172 94.8285C43.455 93.2963 42.7971 84.8646 43.2076 82.574M43.4013 82.039C43.3204 82.1157 43.2564 82.3014 43.2076 82.574" stroke="black"/>
<path d="M108.024 100.001V106.001C96.4322 99.9184 77.2321 95.8337 68.752 94.6643C66.8327 94.3996 65.4626 94.2843 64.8541 94.329C65.5711 92.7968 66.229 84.3651 65.8185 82.0745C65.7697 81.8018 65.7057 81.6162 65.6249 81.5395C66.7268 81.5807 72.0242 81.5007 72.0242 81.5007C72.0242 81.5007 71.0173 89.5444 71.5242 89.5007C72.0311 89.457 108.331 99.959 108.024 100.001Z" fill="#FCDB5A"/>
<path d="M64.5242 94.5007C64.4489 94.4069 64.5664 94.3501 64.8541 94.329M64.5242 94.5007C64.6331 94.6364 64.7443 94.5636 64.8541 94.329M64.5242 94.5007C65.3446 95.5228 66.2919 84.7159 65.8185 82.0745M64.5242 94.5007C64.2898 94.2086 65.9254 94.2745 68.752 94.6643M65.5242 81.5007C64.4833 81.6146 72.0242 81.5007 72.0242 81.5007M65.5242 81.5007C65.5603 81.4967 65.5938 81.5101 65.6249 81.5395M65.5242 81.5007C65.3557 81.5191 65.4121 81.5316 65.6249 81.5395M65.5242 81.5007C65.6543 81.4864 65.7509 81.6971 65.8185 82.0745M72.0242 81.5007C72.0242 81.5007 71.0173 89.5444 71.5242 89.5007C72.0311 89.457 108.331 99.959 108.024 100.001V106.001C96.4322 99.9184 77.2321 95.8337 68.752 94.6643M72.0242 81.5007C72.0242 81.5007 66.7268 81.5807 65.6249 81.5395M64.8541 94.329C65.4626 94.2843 66.8327 94.3996 68.752 94.6643M64.8541 94.329C65.5711 92.7968 66.229 84.3651 65.8185 82.0745M65.6249 81.5395C65.7057 81.6162 65.7697 81.8018 65.8185 82.0745" stroke="black"/>
<path d="M2.5023 22.9991C2.50215 27.9985 -8.4978 82.9997 55.0021 81.4991C118.502 79.9985 107.002 28.4985 106.002 22.9991C93.2138 25.4314 86.9851 29.3068 77.502 40.4985C69.7255 54.0755 67.9244 61.1303 68.002 73L73.502 72C74.1433 60.2561 76.1521 54.1385 82.502 44C88.2693 37.4414 91.8626 34.0442 101.502 30.5C102.052 40.0851 101.247 45.4311 98.002 55C92.6877 63.799 87.6709 67.399 77.502 73C70.1734 75.417 65.1468 76.2341 55.0021 77C37.9157 77.8319 28.705 75.8306 13.002 57.5C7.70902 46.1049 7.44759 40.1124 7.50195 29.5C16.9897 33.7088 22.075 36.8528 29.502 48C34.2368 58.0666 35.9915 63.8252 36.002 74.4985H41.002C41.5301 57.8665 37.4765 49.3643 31.502 40.4985C25.5274 31.6327 6.14689 22.5178 2.5023 22.9991Z" fill="#FCDB5A"/>
<path fill-rule="evenodd" clip-rule="evenodd" d="M55.0021 1C49.6443 5.73024 47.6063 8.00499 44.002 14.5C40.8104 22.6735 40.3179 27.1448 39.502 35C39.4132 40.6392 39.2008 44.3176 40.002 50C43.4419 59.9783 46.3498 65.0952 54.002 73C62.3479 65.0349 65.7818 60.0602 69.002 50C70.1459 44.2436 70.3013 41.0773 70.002 35.5C69.5436 26.9123 68.4723 22.4146 65.002 15C62.0413 9.23758 59.714 6.21529 55.0021 1ZM45.002 37C46.4364 25.2817 48.7883 19.4475 55.0021 10C60.4441 19.1776 63.0092 24.7537 65.002 37C63.6538 48.9875 60.4699 54.5194 54.002 64C48.9506 54.6532 45.9291 49.5591 45.002 37Z" fill="#FCDB5A"/>
<path d="M2.5023 22.9991C2.50215 27.9985 -8.4978 82.9997 55.0021 81.4991C118.502 79.9985 107.002 28.4985 106.002 22.9991C93.2138 25.4314 86.9851 29.3068 77.502 40.4985C69.7255 54.0755 67.9244 61.1303 68.002 73L73.502 72C74.1433 60.2561 76.1521 54.1385 82.502 44C88.2693 37.4414 91.8626 34.0442 101.502 30.5C102.052 40.0851 101.247 45.4311 98.002 55C92.6877 63.799 87.6709 67.399 77.502 73C70.1734 75.417 65.1468 76.2341 55.0021 77C37.9157 77.8319 28.705 75.8306 13.002 57.5C7.70902 46.1049 7.44759 40.1124 7.50195 29.5C16.9897 33.7088 22.075 36.8528 29.502 48C34.2368 58.0666 35.9915 63.8252 36.002 74.4985H41.002C41.5301 57.8665 37.4765 49.3643 31.502 40.4985C25.5274 31.6327 6.14689 22.5178 2.5023 22.9991Z" stroke="black"/>
<path fill-rule="evenodd" clip-rule="evenodd" d="M55.0021 1C49.6443 5.73024 47.6063 8.00499 44.002 14.5C40.8104 22.6735 40.3179 27.1448 39.502 35C39.4132 40.6392 39.2008 44.3176 40.002 50C43.4419 59.9783 46.3498 65.0952 54.002 73C62.3479 65.0349 65.7818 60.0602 69.002 50C70.1459 44.2436 70.3013 41.0773 70.002 35.5C69.5436 26.9123 68.4723 22.4146 65.002 15C62.0413 9.23758 59.714 6.21529 55.0021 1ZM45.002 37C46.4364 25.2817 48.7883 19.4475 55.0021 10C60.4441 19.1776 63.0092 24.7537 65.002 37C63.6538 48.9875 60.4699 54.5194 54.002 64C48.9506 54.6532 45.9291 49.5591 45.002 37Z" stroke="black"/>
</svg>
